<?xml version="1.0" encoding="UTF-8" standalone="no"?>
<!DOCTYPE svg PUBLIC "-//W3C//DTD SVG 1.1//EN" "http://www.w3.org/Graphics/SVG/1.1/DTD/svg11.dtd">
<svg width="100%" height="100%" viewBox="0 0 1690 1684" version="1.1" xmlns="http://www.w3.org/2000/svg" xmlns:xlink="http://www.w3.org/1999/xlink" xml:space="preserve" xmlns:serif="http://www.serif.com/" style="fill-rule:evenodd;clip-rule:evenodd;stroke-linejoin:round;stroke-miterlimit:2;">
    <g transform="matrix(1,0,0,1,-6904.38,-4048.32)">
        <g transform="matrix(0.611915,0,0,0.777304,8219.16,4848.96)">
            <rect id="Logo-Image" serif:id="Logo Image" x="-2148.63" y="-1030.02" width="2761.2" height="2165.43" style="fill:none;"/>
            <g id="Logo-Image1" serif:id="Logo Image">
                <g transform="matrix(1.63421,0,0,1.2865,-13431.9,-6238.17)">
                    <g id="Image">
                        <g>
                            <path d="M8031.17,4123.63L8048.18,4197.43C8098.99,4219.37 8147.24,4246.83 8192.04,4279.33L8264.18,4256.28C8305.13,4289.57 8342.76,4326.74 8376.53,4367.28L8354.37,4439.7C8387.4,4484.11 8415.45,4532.01 8438.01,4582.56L8512,4598.67C8530.83,4647.97 8544.83,4698.98 8553.81,4750.98L8498.4,4802.61C8504.81,4857.58 8505.14,4913.09 8499.4,4968.14L8555.43,5019.1C8547.08,5071.2 8533.7,5122.37 8515.48,5171.9L8441.68,5188.91C8419.74,5239.72 8392.28,5287.96 8359.78,5332.77L8382.83,5404.91C8349.55,5445.86 8312.37,5483.49 8271.83,5517.26L8199.41,5495.1C8155.01,5528.13 8107.1,5556.18 8056.56,5578.73L8040.44,5652.73C7991.14,5671.55 7940.14,5685.55 7888.14,5694.53L7836.51,5639.13C7781.53,5645.53 7726.02,5645.87 7670.97,5640.13L7620.02,5696.16C7567.91,5687.81 7516.74,5674.43 7467.21,5656.21L7450.2,5582.41C7399.39,5560.47 7351.15,5533.01 7306.34,5500.51L7234.2,5523.56C7193.25,5490.27 7155.62,5453.1 7121.85,5412.56L7144.02,5340.14C7110.98,5295.73 7082.93,5247.83 7060.38,5197.28L6986.38,5181.17C6967.56,5131.87 6953.56,5080.86 6944.58,5028.86L6999.98,4977.23C6993.58,4922.26 6993.24,4866.75 6998.98,4811.7L6942.95,4760.74C6951.3,4708.64 6964.68,4657.47 6982.9,4607.94L7056.7,4590.93C7078.64,4540.12 7106.11,4491.88 7138.6,4447.07L7115.56,4374.93C7148.84,4333.98 7186.01,4296.35 7226.56,4262.58L7298.97,4284.74C7343.38,4251.71 7391.28,4223.66 7441.83,4201.11L7457.94,4127.11C7507.24,4108.29 7558.25,4094.29 7610.25,4085.31L7661.88,4140.71C7716.85,4134.31 7772.36,4133.97 7827.41,4139.71L7878.37,4083.68C7930.47,4092.03 7981.65,4105.41 8031.17,4123.63ZM7662.37,4913.23C7660.13,4904.74 7659.55,4896.21 7659.38,4888.59C7659.09,4875.27 7665.08,4862.17 7676.93,4855.2C7683.07,4851.58 7687.08,4845.21 7687.68,4838.11C7688.28,4831.02 7685.11,4822.34 7679.96,4817.42C7677.31,4814.9 7674.25,4812.96 7670.65,4811.74C7663.71,4809.38 7656.2,4811.43 7650.05,4815.4C7643.89,4819.38 7640.14,4826.18 7640.08,4833.51C7640.08,4833.81 7640.07,4833.9 7640.07,4833.95C7639.95,4847.75 7630.88,4859.08 7618.82,4865.44C7612.7,4870.21 7605.35,4873.59 7596.73,4875.52C7595.49,4875.79 7594.19,4875.59 7593.09,4874.95L7507.92,4825.78L7274.47,4960.56L7274.47,5230.12L7507.92,5364.9L7741.36,5230.12L7741.36,5148.6C7741.36,5147.75 7741.18,5146.9 7740.81,5146.13L7738.89,5142.04C7734.13,5131.95 7722.82,5126.71 7712.05,5129.62L7696.59,5133.78C7684.63,5137.01 7671.85,5134.48 7662.01,5126.94C7652.18,5119.41 7646.41,5107.72 7646.41,5095.33L7646.41,5095.32C7646.41,5082.94 7652.17,5071.26 7662,5063.72C7671.83,5056.18 7684.61,5053.65 7696.57,5056.87L7710.68,5060.66C7722.34,5063.79 7734.56,5058.08 7739.63,5047.13L7740.98,5044.22C7741.23,5043.67 7741.36,5043.07 7741.36,5042.46L7741.36,4960.56C7741.36,4960.56 7676.43,4923.07 7664.74,4916.32C7663.58,4915.64 7662.72,4914.53 7662.37,4913.23ZM7756.02,5055.86C7749.81,5062.06 7742.72,5066.85 7736.22,5070.82C7724.85,5077.77 7710.52,5079.17 7698.53,5072.43C7692.32,5068.94 7684.8,5068.67 7678.36,5071.72C7671.92,5074.77 7665.86,5081.83 7664.35,5088.8C7663.56,5092.43 7663.37,5096.05 7664.11,5099.7C7665.57,5106.88 7671.11,5112.34 7677.64,5115.67C7684.16,5119 7691.93,5118.81 7698.3,5115.19C7698.58,5115.01 7698.61,5115.01 7698.66,5114.98C7710.65,5108.15 7730.72,5111.71 7738.26,5116C7744.89,5119.76 7750.57,5125.01 7756.45,5131.6C7757.28,5132.53 7757.74,5133.73 7757.74,5134.98L7758.02,5233.34L7991.85,5367.45L8224.92,5232.01L8224.15,4962.44L7990.31,4828.33L7919.83,4869.29C7919.09,4869.72 7918.46,4870.31 7917.97,4871.01L7915.4,4874.73C7909.07,4883.92 7910.22,4896.32 7918.15,4904.18L7929.52,4915.45C7938.31,4924.17 7942.55,4936.5 7940.98,4948.78C7939.4,4961.07 7932.2,4971.93 7921.49,4978.16L7921.48,4978.16C7910.77,4984.39 7897.77,4985.27 7886.32,4980.56C7874.86,4975.85 7866.25,4966.07 7863.03,4954.12L7859.22,4940.01C7856.07,4928.36 7844.99,4920.66 7832.97,4921.78L7829.78,4922.08C7829.17,4922.13 7828.58,4922.32 7828.06,4922.63L7757.25,4963.78C7757.25,4963.78 7757.47,5038.76 7757.5,5052.26C7757.5,5053.6 7756.97,5054.9 7756.02,5055.86ZM7834.51,4904.77C7842.98,4907.07 7850.66,4910.83 7857.34,4914.5C7869.02,4920.9 7877.37,4932.64 7877.49,4946.39C7877.55,4953.51 7881.06,4960.17 7886.91,4964.24C7892.75,4968.31 7901.77,4969.61 7908.69,4967.9C7912.35,4966.99 7915.48,4965.11 7918.26,4962.68C7923.78,4957.86 7925.75,4950.32 7925.39,4943C7925.03,4935.69 7921.01,4929.04 7914.69,4925.32C7914.69,4925.31 7914.47,4925.18 7914.41,4925.15C7902.52,4918.15 7899.25,4904.35 7897.3,4890.89C7896.9,4883.28 7897.39,4875.22 7899.99,4866.79C7900.37,4865.57 7901.2,4864.54 7902.3,4863.9L7987.47,4814.73L7987.47,4545.17L7754.02,4410.39L7520.57,4545.17L7520.57,4814.73L7591.18,4855.49C7591.91,4855.92 7592.74,4856.18 7593.59,4856.25L7598.1,4856.62C7609.21,4857.55 7619.4,4850.38 7622.27,4839.6L7626.39,4824.12C7629.58,4812.15 7638.16,4802.35 7649.61,4797.6C7661.05,4792.85 7674.05,4793.7 7684.78,4799.89L7684.79,4799.9C7695.52,4806.09 7702.75,4816.92 7704.36,4829.2C7705.98,4841.48 7701.78,4853.81 7693.02,4862.56L7682.68,4872.89C7674.13,4881.42 7672.97,4894.86 7679.92,4904.73L7681.77,4907.35C7682.11,4907.84 7682.57,4908.26 7683.1,4908.56L7754.02,4949.51C7754.02,4949.51 7818.96,4912.02 7830.65,4905.28C7831.82,4904.6 7833.2,4904.42 7834.51,4904.77Z"/>
                        </g>
                    </g>
                </g>
            </g>
        </g>
    </g>
</svg>
